<?xml version="1.0" encoding="utf-8"?>
<!-- Generator: Adobe Illustrator 21.1.0, SVG Export Plug-In . SVG Version: 6.00 Build 0)  -->
<svg version="1.1" id="Capa_1" xmlns="http://www.w3.org/2000/svg" xmlns:xlink="http://www.w3.org/1999/xlink" x="0px" y="0px"
	 viewBox="0 0 512 512" style="enable-background:new 0 0 512 512;" xml:space="preserve">
<style type="text/css">
	.st0{fill:#FFFFFF;}
</style>
<g>
	<g>
		<path class="st0" d="M385,57.3c-4.1,4.1-6.1,8.9-6.1,14.4v204.8c0,5.5,2,10.3,6.1,14.4c4.1,4.1,8.9,6.1,14.4,6.1h92.2
			c5.6,0,10.4-2,14.4-6.1c4.1-4.1,6.1-8.9,6.1-14.4V71.7c0-5.5-2-10.3-6.1-14.4c-4.1-4.1-8.9-6.1-14.4-6.1h-92.2
			C393.8,51.2,389,53.2,385,57.3z M430.1,112.6c0-5.8,2-10.6,6.1-14.6c4.1-3.9,8.9-5.9,14.4-5.9c5.8,0,10.6,2,14.6,5.9
			c3.9,3.9,5.9,8.8,5.9,14.6c0,5.6-2,10.3-5.9,14.4c-3.9,4.1-8.8,6.1-14.6,6.1c-5.5,0-10.3-2-14.4-6.1
			C432.1,123,430.1,118.2,430.1,112.6z"/>
		<path class="st0" d="M0,276.5c0.2,16.6,6.3,31,18.4,43.2c12.1,12.2,26.4,18.2,43,18.2h88.6c-0.8,3-1.7,5.5-2.6,7.7
			c-0.9,2.1-2,4.5-3.5,7c-1.5,2.6-2.6,4.5-3.2,5.8c-3.8,7.9-6.7,14-8.6,18.2c-1.9,4.3-3.9,10.5-6.1,18.7c-2.1,8.2-3.2,16.4-3.2,24.5
			c0,5.1,0.1,9.3,0.2,12.5c0.1,3.2,0.6,8,1.6,14.4c1,6.4,2.2,11.7,3.8,16c1.6,4.3,4.2,9.1,7.7,14.4c3.5,5.3,7.8,9.6,12.8,13
			c5,3.3,11.4,6.1,19.2,8.3c7.8,2.2,16.6,3.4,26.4,3.4c5.5,0,10.3-2,14.4-6.1c4.3-4.3,7.9-9.6,10.9-16c3-6.4,5.1-11.9,6.2-16.6
			c1.2-4.7,2.5-11.2,4-19.5c1.9-9,3.4-15.4,4.3-19.4c1-3.9,2.8-9.1,5.6-15.5c2.8-6.4,6.1-11.5,9.9-15.4c7-7,17.8-19.8,32.3-38.4
			c10.5-13.7,21.2-26.6,32.3-38.7c11.1-12.2,19.2-18.4,24.3-18.9c5.3-0.4,9.9-2.6,13.8-6.6c3.8-3.9,5.8-8.6,5.8-13.9V71.7
			c0-5.5-2-10.3-6.1-14.2c-4.1-3.9-8.9-6-14.4-6.2c-7.5-0.2-24.3-4.9-50.6-14.1c-16.4-5.5-29.3-9.8-38.6-12.6
			c-9.3-2.9-22.2-6-38.9-9.3c-16.6-3.3-32-5-46.1-5h-5.4h-24.3h-11.5c-28.4,0.4-49.4,8.7-63,25C47.2,49.9,42,69.2,43.9,93.1
			c-8.3,7.9-14.1,17.9-17.3,30.1c-3.6,13-3.6,25.5,0,37.4c-9.8,13-14.4,27.6-13.8,43.8c0,6.8,1.6,14.9,4.8,24.3
			C5.9,241.8,0,257.7,0,276.5z"/>
	</g>
</g>
</svg>
